<?xml version="1.0" encoding="UTF-8"?>
<svg id="Layer_2" data-name="Layer 2" xmlns="http://www.w3.org/2000/svg" viewBox="0 0 182.75 162.91">
  <defs>
    <style>
      .cls-1 {
        fill: #fbfed0;
      }

      .cls-2 {
        fill: #ff5a33;
      }
    </style>
  </defs>
  <g id="Layer_1-2" data-name="Layer 1">
    <path class="cls-2" d="m88.94,56.48c-.23-4.47-.15-10.99,1.48-18.62,1.53-7.15,3.77-17.73,12.33-26.5,3.7-3.79,12.68-12.99,23.29-11.12,9.57,1.68,17.23,11.74,18.57,21.33,3.14,22.51-28.34,43.74-26.07,46.25,1.04,1.15,7.29-3.67,16.74-8.75,8.88-4.77,34.69-18.61,43.88-10.45,5.54,4.91,3.17,16.36,2.57,19.23-1.72,8.3-6.45,13.52-9.05,16.3-12.39,13.3-29.73,14.13-33.6,14.21-10.69.23-19.13-3.1-24.08-5.6,2.25.83,5.57,2.14,9.48,3.98,10.27,4.82,20.44,9.59,27.54,19.5,2.39,3.33,5.2,7.26,6.16,13.09,1.99,12.1-4.83,27.54-15.23,29.92-11.9,2.73-23.78-12.82-29.46-20.25-3.47-4.54-8.32-9.92-10.71-18.37-1.47-5.2-1.84-10.58-2.3-10.54-.4.03-.21,4.19-.34,8.73-.22,7.99-.26,17.06-4.59,25.59-1.77,3.49-4.22,8.33-9.59,12.4-2.84,2.16-10.3,7.81-18.42,5.56-9.22-2.56-12.47-13.41-13.22-15.91-3.06-10.24.7-19.33,2.41-23.28,5.89-13.62,16.72-19.42,15.63-21.01-1.31-1.91-16.31,7.57-39.94,12.97-6.38,1.46-10.93,2.06-16.02.43C8.62,113.09.43,105.68.02,96.98c-.62-13.19,17-21.73,19.32-22.82,23-10.79,51.02,1.73,51.25.75.12-.5-7.82-1.79-16.07-6.11-2.94-1.54-16.43-8.6-22.82-23.02-5.65-12.75-6.55-33.04,2.87-38.41,11.83-6.76,33.31,13.98,35.19,15.79,12.31,11.89,17.17,25.71,19.19,33.32Z"/>
    <path class="cls-1" d="m109.11,84.61c-.12,2.38-.38,7.51-4.51,11.25-.68.61-4.69,4.12-10.12,3.38-5.68-.78-8.64-5.63-9.94-7.77-1.25-2.05-3.36-5.52-2.48-9.75.91-4.41,4.49-6.81,6.31-8.03.81-.54,10.12-6.61,16.43-2.1,4.8,3.43,4.44,10.52,4.32,13.02Z"/>
  </g>
</svg>